<svg width="118" height="118" viewBox="0 0 118 118" fill="none" xmlns="http://www.w3.org/2000/svg">
<circle cx="59" cy="59" r="59" fill="#F5F5F5"/>
<path d="M105.868 72.4033C105.628 71.7607 105.528 71.6713 104.881 71.4487C101.188 70.5875 96.2987 75.4389 92.746 77.9905C93.4356 73.8644 93.5697 68.3758 90.227 65.4415C87.3493 62.8512 82.8533 63.2271 80.2094 66.0827C78.6404 67.7132 77.624 70.0542 77.2719 72.8525C76.3246 79.5317 74.3251 84.4204 69.9434 87.6866C61.8045 88.9718 53.5526 88.2225 45.9172 86.3215C45.233 86.1588 45.2317 86.1402 44.7826 85.8815C44.0452 85.4562 43.559 84.6043 43.64 83.9284C43.64 83.9284 43.6374 83.7058 43.5909 83.3445C43.098 79.8116 41.3256 78.4811 38.2938 77.08C32.7655 74.9016 27.3555 72.1886 22.376 68.909C22.0584 68.6984 21.7435 68.4864 21.4459 68.2811C21.2666 68.1585 21.05 68.1478 20.8693 68.2451C20.5199 68.5318 20.2064 68.9824 20.6621 69.353C21.1882 69.7596 21.7475 70.1742 22.3135 70.5782C26.3378 73.4485 30.6411 75.9655 35.0906 78.1132C36.0963 78.5691 36.0923 80.0769 35.0228 80.3916C34.7053 80.4915 34.3372 80.4742 34.0051 80.3129C29.4347 78.1039 25.0238 75.5229 20.8893 72.5726C20.3034 72.1526 19.7241 71.7247 19.1687 71.2941C18.8738 71.0608 18.4606 71.1114 18.2374 71.4047L18.058 71.6234C17.8083 71.9167 17.88 72.3366 18.1856 72.5712C20.5266 74.371 22.9977 76.0121 25.5234 77.5453C28.0597 79.0797 30.6677 80.4955 33.3368 81.7794C34.0011 82.0993 34.3173 82.8499 34.0383 83.4658C33.7553 84.0804 32.9648 84.3204 32.2793 83.9898C28.1686 82.0087 24.2014 79.7383 20.415 77.188C19.1475 76.3321 17.9066 75.4509 16.6922 74.5137C16.3814 74.275 15.927 74.255 15.6639 74.547L15.4846 74.7656C15.2467 75.0909 15.3969 75.5495 15.7091 75.7908C16.9566 76.7547 18.2188 77.6506 19.5168 78.5265C23.3697 81.1221 27.3993 83.4285 31.5817 85.4456C33.2877 86.3748 32.1929 88.4172 30.4936 87.6453C24.7621 84.8643 19.2883 81.6061 14.2144 77.7346C14.0337 77.5946 13.8238 77.5239 13.6219 77.5173C13.3495 77.5026 12.9961 77.6093 13.0001 77.9399C12.9961 78.2545 13.1144 78.5425 13.3708 78.7598C19.0784 83.5018 25.3028 87.488 31.9298 90.8342C33.5985 91.5834 36.1999 92.5087 38.1556 91.9941C39.5148 91.7034 40.8739 90.7889 41.6392 89.897C42.1759 89.0584 43.458 88.8691 44.489 89.1104C44.578 89.1344 45.4031 89.4331 45.7086 89.5264C61.6265 94.9617 79.1944 94.2644 94.0228 85.6855C97.9222 83.3725 101.369 81.2248 103.937 78.0132C105.134 76.5094 106.42 74.235 105.868 72.4033ZM89.4232 80.2716C87.9073 81.2355 86.3103 82.15 84.6363 82.9859C85.2156 81.6354 85.6965 80.1649 86.0765 78.5838C86.7248 75.8908 86.8218 73.8844 86.8258 73.8004C86.859 73.0738 86.2984 72.4579 85.5743 72.4233C84.8489 72.3886 84.2351 72.9512 84.2005 73.6778C84.1912 75.7788 82.8268 81.8314 80.7435 84.7337C78.8011 85.5069 76.8016 86.1655 74.7742 86.6854C77.7901 82.8046 79.1705 78.4411 79.8786 73.1818C80.6811 65.2682 88.7602 63.7324 90.2616 70.8928C90.7651 74.0537 90.4821 77.208 89.4232 80.2716ZM26.1186 45.0001C31.1327 34.3375 46.8645 34.3308 51.8853 44.9948C52.5974 46.5866 50.2936 47.6798 49.5137 46.1347C45.5505 37.5011 32.4506 37.5011 28.4901 46.1387C28.1766 46.8026 27.3781 47.0705 26.7377 46.7599C26.0827 46.4439 25.8064 45.6574 26.1186 45.0001ZM70.5014 45.0001C75.5155 34.3375 91.246 34.3308 96.2681 44.9948C96.9802 46.5866 94.6765 47.6798 93.8966 46.1347C89.9334 37.5011 76.8335 37.5011 72.873 46.1387C72.5594 46.8026 71.7609 47.0705 71.1206 46.7599C70.4656 46.4439 70.1879 45.6574 70.5014 45.0001Z" fill="black"/>
</svg>
